<svg width="103" height="59" viewBox="0 0 103 59" fill="none" xmlns="http://www.w3.org/2000/svg">
<g opacity="0.3">
<g clip-path="url(#clip0_6029_292)">
<path d="M22.3447 35.7735C23.1311 35.0638 23.2725 34.6687 23.6372 34.4612C51.3544 26.3956 79.2311 28.569 106.643 43.5394C113.572 47.3037 119.545 52.6617 124.393 59.1312C134.899 72.9207 135.649 90.1643 126.394 102.773C121.611 109.375 115.769 114.744 107.418 116.98C103.843 114.663 100.352 112.245 96.8308 110.316C91.0746 107.194 85.1152 106.129 79.2006 108.184C74.7721 109.603 72.2418 112.616 72.6787 115.723C73.2521 119.801 76.3784 122.427 80.0429 123.278C85.1341 124.47 90.3393 125.074 95.4055 125.389C98.6805 125.57 102.042 124.968 105.235 124.567C116.418 136.87 112.752 152.117 96.7085 160.566C94.5847 159.468 92.3492 158.275 90.141 157.277C81.8665 153.754 73.7214 153.25 66.3159 157.307C63.4827 158.867 61.0391 161.097 61.6969 165.075C62.2182 168.082 65.3445 170.707 69.8203 171.725C76.926 173.24 83.6768 172.23 90.2339 170.543C92.504 169.88 94.7741 169.218 96.9325 168.461C114.785 186.879 115.388 214.274 94.5826 223.178C96.1184 224.297 97.2622 225.428 98.2695 225.589C99.4728 225.743 100.847 225.014 101.83 224.297C110.786 217.26 116.332 208.388 114.892 196.047C113.889 186.812 110.42 178.247 105.13 170.036C104.378 168.891 103.626 167.746 102.959 166.5C102.847 166.406 102.904 166.112 102.906 165.429C103.777 164.618 104.705 163.514 105.856 162.596C119.503 151.107 121.388 140.701 112.661 122.753C114.119 121.923 115.747 120.892 117.402 120.055C126.799 114.759 133.517 107.213 137.193 96.9413C143.216 80.2478 137.962 61.7915 123.313 47.9479C115.361 40.4133 106.225 34.9678 96.132 31.116C71.6958 21.8983 47.7365 20.2745 24.3587 28.3875C23.1256 28.7222 21.9199 29.2511 20.6869 29.5857C20.4909 29.5924 20.1832 29.5053 19.2603 29.244C21.2348 25.079 24.2689 22.1464 27.1912 19.12C29.9176 16.1002 32.9516 13.1676 36.0427 9.94026C32.8867 7.80365 30.5893 8.27209 28.4855 9.41691C26.1287 10.863 23.5485 12.1216 21.7499 14.0366C16.972 19.2726 12.2213 24.7028 7.91723 30.5081C4.62532 35.1082 6.18119 38.47 11.6916 39.8435C23.4121 42.6643 35.217 45.3847 47.0219 48.1051C48.9521 48.5272 50.8278 48.5609 53.3187 48.7689C52.4649 44.7977 50.0037 44.101 47.7385 43.3975C39.3475 41.1464 31.2096 38.5939 22.3447 35.7735ZM67.5769 164.875C74.4016 158.788 82.9412 158.595 90.1168 164.108C82.8873 165.915 76.1614 167.802 67.5769 164.875ZM78.7795 116.394C85.3191 111.781 92.1469 112.719 98.4517 119.041C91.6736 119.857 85.5406 120.359 78.7795 116.394Z" fill="#2E2E2C"/>
</g>
</g>
<defs>
<clipPath id="clip0_6029_292">
<rect x="102.96" width="58.08" height="102.96" rx="29.04" transform="rotate(90 102.96 0)" fill="white"/>
</clipPath>
</defs>
</svg>
