<svg width="103" height="59" viewBox="0 0 103 59" fill="none" xmlns="http://www.w3.org/2000/svg">
<g clip-path="url(#clip0_6029_293)">
<path d="M80.6155 35.7735C79.8291 35.0638 79.6877 34.6687 79.323 34.4612C51.6058 26.3956 23.7291 28.569 -3.68236 43.5394C-10.6121 47.3037 -16.5844 52.6617 -21.4328 59.1312C-31.9386 72.9207 -32.6893 90.1643 -23.4337 102.773C-18.6509 109.375 -12.8085 114.744 -4.45764 116.98C-0.882309 114.663 2.60866 112.245 6.12937 110.316C11.8856 107.194 17.845 106.129 23.7596 108.184C28.1881 109.603 30.7184 112.616 30.2815 115.723C29.7081 119.801 26.5818 122.427 22.9173 123.278C17.8261 124.47 12.6209 125.074 7.55469 125.389C4.27974 125.57 0.918044 124.968 -2.27498 124.567C-13.4579 136.87 -9.79228 152.117 6.25169 160.566C8.37552 159.468 10.611 158.275 12.8192 157.277C21.0937 153.754 29.2388 153.25 36.6443 157.307C39.4775 158.867 41.9211 161.097 41.2633 165.075C40.7421 168.082 37.6157 170.707 33.1399 171.725C26.0342 173.24 19.2834 172.23 12.7263 170.543C10.4562 169.88 8.18615 169.218 6.02774 168.461C-11.8247 186.879 -12.4274 214.274 8.37763 223.178C6.8418 224.297 5.69796 225.428 4.69066 225.589C3.48736 225.743 2.11294 225.014 1.13052 224.297C-7.82533 217.26 -13.3721 208.388 -11.9321 196.047C-10.929 186.812 -7.45984 178.247 -2.16965 170.036C-1.41781 168.891 -0.665969 167.746 0.00152872 166.5C0.113181 166.406 0.0561609 166.112 0.0537369 165.429C-0.817027 164.618 -1.74483 163.514 -2.89594 162.596C-16.543 151.107 -18.4277 140.701 -9.7005 122.753C-11.1593 121.923 -12.7867 120.892 -14.4415 120.055C-23.8391 114.759 -30.557 107.213 -34.233 96.9413C-40.2555 80.2478 -35.0017 61.7915 -20.3526 47.9479C-12.4004 40.4133 -3.26485 34.9678 6.82822 31.116C31.2644 21.8983 55.2237 20.2745 78.6015 28.3875C79.8346 28.7222 81.0403 29.2511 82.2733 29.5857C82.4693 29.5924 82.777 29.5053 83.6999 29.244C81.7254 25.079 78.6913 22.1464 75.769 19.12C73.0426 16.1002 70.0086 13.1676 66.9175 9.94026C70.0735 7.80365 72.3709 8.27209 74.4747 9.41691C76.8315 10.863 79.4117 12.1216 81.2103 14.0366C85.9882 19.2726 90.7389 24.7028 95.043 30.5081C98.3349 35.1082 96.779 38.47 91.2686 39.8435C79.5481 42.6643 67.7432 45.3847 55.9383 48.1051C54.0081 48.5272 52.1324 48.5609 49.6415 48.7689C50.4953 44.7977 52.9565 44.101 55.2217 43.3975C63.6127 41.1464 71.7506 38.5939 80.6155 35.7735ZM35.3833 164.875C28.5586 158.788 20.019 158.595 12.8434 164.108C20.073 165.915 26.7988 167.802 35.3833 164.875ZM24.1807 116.394C17.6411 111.781 10.8133 112.719 4.50853 119.041C11.2866 119.857 17.4196 120.359 24.1807 116.394Z" fill="#2E2E2C"/>
</g>
<defs>
<clipPath id="clip0_6029_293">
<rect width="58.08" height="102.96" rx="29.04" transform="matrix(4.37114e-08 1 1 -4.37114e-08 0 0)" fill="white"/>
</clipPath>
</defs>
</svg>
